<svg viewBox="0 0 50 50" xmlns="http://www.w3.org/2000/svg" id="_图层_1"><defs><style>.cls-1{fill:none;stroke:#6b5047;stroke-linecap:round;stroke-linejoin:round;stroke-width:.97px;}</style></defs><path d="M20.24,45.24s14.11-28.87,15.96-32.15c2.51-4.47,4.9-3.3,2.12,1.72-4.16,7.5-18.07,30.43-18.07,30.43Z" class="cls-1"></path><path d="M37.32,13.76c-7.29-.69-26.98-9.03-30.52,1.26-1.25,3.64.52,7.99.52,7.99C5,4.79,30.64,5.25,38.51,7.82c7.16,2.34,6.34,5.91.64,6.01" class="cls-1"></path><path d="M7.21,22.66c.62,1.91,2.62,5.01,4.38,5.6s1.74-6.18-.81-6.28,3.93,5.83,3.93,5.83c0,0,1.56-7.55,2.78-7.95s3.18,6.31,4.26,5.94,3.39-7.58,3.39-7.58" class="cls-1"></path><path d="M25.72,24.37s-2.87-5.93-3.95-5.72-2.33,7.5-3.59,7.9-4.14-5.85-4.14-5.85" class="cls-1"></path><line y2="15.39" x2="36.49" y1="12.9" x1="37.82" class="cls-1"></line></svg>